<svg width="123" height="32" viewBox="0 0 123 32" fill="none" xmlns="http://www.w3.org/2000/svg">
<path d="M1.848 24V9.888C1.848 9.2 1.944 8.632 2.136 8.184C2.344 7.72 2.616 7.36 2.952 7.104C3.288 6.832 3.664 6.64 4.08 6.528C4.496 6.4 4.912 6.336 5.328 6.336C6.032 6.352 6.792 6.368 7.608 6.384C8.44 6.4 9.288 6.424 10.152 6.456C11.032 6.472 11.888 6.512 12.72 6.576V8.088H5.784C5.144 8.088 4.648 8.264 4.296 8.616C3.944 8.968 3.768 9.488 3.768 10.176V14.76L11.664 14.88V16.344L3.768 16.464V24H1.848ZM19.0228 24.144C17.7908 24.144 16.8388 23.824 16.1668 23.184C15.5108 22.544 15.1828 21.552 15.1828 20.208V11.184H17.0788V19.728C17.0788 20.8 17.3188 21.528 17.7988 21.912C18.2948 22.28 18.9828 22.464 19.8628 22.464C20.6148 22.464 21.3028 22.36 21.9268 22.152C22.5508 21.928 23.1908 21.624 23.8468 21.24V11.184H25.7428V24H24.2548L23.8468 22.584C23.1908 23 22.4468 23.368 21.6148 23.688C20.7988 23.992 19.9348 24.144 19.0228 24.144ZM29.3162 24V11.184H30.7562L31.2122 13.416C31.7882 12.728 32.4282 12.16 33.1322 11.712C33.8522 11.264 34.6762 11.04 35.6042 11.04C35.8282 11.04 36.0362 11.048 36.2282 11.064C36.4362 11.08 36.6282 11.112 36.8042 11.16V13.104C36.5962 13.072 36.3722 13.048 36.1322 13.032C35.8922 13 35.6522 12.984 35.4122 12.984C34.8202 12.984 34.2922 13.056 33.8282 13.2C33.3642 13.344 32.9242 13.56 32.5082 13.848C32.0922 14.136 31.6602 14.488 31.2122 14.904V24H29.3162ZM44.2468 24.144C43.8948 24.144 43.4708 24.128 42.9748 24.096C42.4948 24.08 41.9988 24.048 41.4868 24C40.9748 23.968 40.4868 23.928 40.0228 23.88C39.5748 23.832 39.1988 23.776 38.8948 23.712V22.248C39.2948 22.28 39.7828 22.312 40.3588 22.344C40.9348 22.376 41.5508 22.4 42.2068 22.416C42.8788 22.432 43.5348 22.44 44.1748 22.44C44.8948 22.44 45.5428 22.368 46.1188 22.224C46.6948 22.08 47.1508 21.816 47.4868 21.432C47.8388 21.048 48.0148 20.496 48.0148 19.776V18.576C48.0148 17.76 47.8068 17.144 47.3908 16.728C46.9748 16.296 46.3028 16.08 45.3748 16.08H43.4788C42.0228 16.08 40.8788 15.76 40.0468 15.12C39.2308 14.48 38.8228 13.376 38.8228 11.808V10.8C38.8228 9.136 39.2708 7.952 40.1668 7.248C41.0628 6.544 42.3268 6.192 43.9588 6.192C44.4708 6.192 45.0468 6.224 45.6868 6.288C46.3268 6.336 46.9428 6.4 47.5348 6.48C48.1428 6.544 48.6468 6.616 49.0468 6.696V8.16C48.3428 8.096 47.5428 8.04 46.6468 7.992C45.7668 7.944 44.9348 7.92 44.1508 7.92C43.4308 7.92 42.8068 8.008 42.2788 8.184C41.7508 8.344 41.3428 8.64 41.0548 9.072C40.7828 9.488 40.6468 10.088 40.6468 10.872V11.688C40.6468 12.664 40.9028 13.336 41.4148 13.704C41.9268 14.072 42.6388 14.256 43.5508 14.256H45.5908C46.5668 14.256 47.3668 14.432 47.9908 14.784C48.6148 15.136 49.0788 15.624 49.3828 16.248C49.6868 16.856 49.8388 17.56 49.8388 18.36V19.728C49.8388 20.912 49.5828 21.824 49.0708 22.464C48.5748 23.104 47.9028 23.544 47.0548 23.784C46.2228 24.024 45.2868 24.144 44.2468 24.144ZM55.3674 24L51.4794 11.184H53.4234L56.5674 22.224L59.8074 11.184H61.4634L64.7034 22.224L67.7514 11.184H69.6954L65.8314 24H63.7434L60.5994 13.728L57.4314 24H55.3674ZM76.3997 24.144C75.0557 24.144 73.9917 23.944 73.2077 23.544C72.4397 23.144 71.8877 22.464 71.5517 21.504C71.2157 20.544 71.0477 19.232 71.0477 17.568C71.0477 15.872 71.2157 14.552 71.5517 13.608C71.9037 12.648 72.4717 11.976 73.2557 11.592C74.0397 11.208 75.0957 11.016 76.4237 11.016C77.5597 11.016 78.4797 11.144 79.1837 11.4C79.9037 11.656 80.4317 12.096 80.7677 12.72C81.1197 13.328 81.2957 14.176 81.2957 15.264C81.2957 16.016 81.1437 16.624 80.8397 17.088C80.5517 17.536 80.1277 17.864 79.5677 18.072C79.0237 18.264 78.3757 18.36 77.6237 18.36H72.9437C72.9597 19.4 73.0717 20.24 73.2797 20.88C73.4877 21.504 73.8637 21.96 74.4077 22.248C74.9677 22.52 75.7837 22.656 76.8557 22.656H80.9837V23.808C80.2477 23.904 79.5277 23.984 78.8237 24.048C78.1197 24.112 77.3117 24.144 76.3997 24.144ZM72.9197 17.112H77.4797C78.1997 17.112 78.7277 16.984 79.0637 16.728C79.4157 16.456 79.5917 15.976 79.5917 15.288C79.5917 14.552 79.4797 13.984 79.2557 13.584C79.0477 13.168 78.7117 12.88 78.2477 12.72C77.7997 12.544 77.1917 12.456 76.4237 12.456C75.5277 12.456 74.8237 12.592 74.3117 12.864C73.7997 13.12 73.4397 13.584 73.2317 14.256C73.0237 14.928 72.9197 15.88 72.9197 17.112ZM89.3841 24.144C88.0401 24.144 86.9761 23.944 86.1921 23.544C85.4241 23.144 84.8721 22.464 84.5361 21.504C84.2001 20.544 84.0321 19.232 84.0321 17.568C84.0321 15.872 84.2001 14.552 84.5361 13.608C84.8881 12.648 85.4561 11.976 86.2401 11.592C87.0241 11.208 88.0801 11.016 89.4081 11.016C90.5441 11.016 91.4641 11.144 92.1681 11.4C92.8881 11.656 93.4161 12.096 93.7521 12.72C94.1041 13.328 94.2801 14.176 94.2801 15.264C94.2801 16.016 94.1281 16.624 93.8241 17.088C93.5361 17.536 93.1121 17.864 92.5521 18.072C92.0081 18.264 91.3601 18.36 90.6081 18.36H85.9281C85.9441 19.4 86.0561 20.24 86.2641 20.88C86.4721 21.504 86.8481 21.96 87.3921 22.248C87.9521 22.52 88.7681 22.656 89.8401 22.656H93.9681V23.808C93.2321 23.904 92.5121 23.984 91.8081 24.048C91.1041 24.112 90.2961 24.144 89.3841 24.144ZM85.9041 17.112H90.4641C91.1841 17.112 91.7121 16.984 92.0481 16.728C92.4001 16.456 92.5761 15.976 92.5761 15.288C92.5761 14.552 92.4641 13.984 92.2401 13.584C92.0321 13.168 91.6961 12.88 91.2321 12.72C90.7841 12.544 90.1761 12.456 89.4081 12.456C88.5121 12.456 87.8081 12.592 87.2961 12.864C86.7841 13.12 86.4241 13.584 86.2161 14.256C86.0081 14.928 85.9041 15.88 85.9041 17.112ZM101.72 24C100.888 24 100.2 23.864 99.6564 23.592C99.1124 23.32 98.7124 22.88 98.4564 22.272C98.2004 21.664 98.0804 20.856 98.0964 19.848L98.1684 12.744H96.1284V11.52L98.1924 11.184L98.5044 7.608H99.9684V11.184H103.664V12.744H99.9684V19.848C99.9684 20.408 100.024 20.856 100.136 21.192C100.264 21.528 100.424 21.784 100.616 21.96C100.824 22.136 101.04 22.264 101.264 22.344C101.488 22.408 101.704 22.448 101.912 22.464L103.472 22.608V24H101.72Z" fill="black"/>
<ellipse cx="118" cy="4.5" rx="5" ry="4.5" fill="#F6973F"/>
</svg>
